<svg width="829" height="695" viewBox="0 0 829 695" fill="none" xmlns="http://www.w3.org/2000/svg">
<g filter="url(#filter0_d_2008_2803)">
<path d="M532.5 30.86C466.655 30.86 413 84.5155 413 150.36C413 216.205 466.655 269.86 532.5 269.86C598.344 269.86 652 216.205 652 150.36C652 84.5155 598.344 30.86 532.5 30.86ZM589.621 122.875L521.864 190.632C520.184 192.31 517.906 193.253 515.531 193.253C513.156 193.253 510.878 192.31 509.198 190.632L475.379 156.813C473.712 155.126 472.777 152.851 472.777 150.48C472.777 148.108 473.712 145.833 475.379 144.146C478.844 140.681 484.58 140.681 488.046 144.146L515.531 171.631L576.954 110.208C580.419 106.743 586.156 106.743 589.621 110.208C593.087 113.674 593.087 119.29 589.621 122.875Z" fill="#1E2F97"/>
</g>
<g filter="url(#filter1_d_2008_2803)">
<rect x="-200.243" y="136.44" width="649" height="394" rx="9.87142" fill="url(#paint0_linear_2008_2803)"/>
</g>
<g filter="url(#filter2_d_2008_2803)">
<rect x="326.111" y="365.016" width="287.362" height="209.768" rx="9.87142" fill="#85BDE5"/>
</g>
<g filter="url(#filter3_d_2008_2803)">
<rect x="422.752" y="234.804" width="307.248" height="212.236" rx="9.87142" fill="#F7F7F7" shape-rendering="crispEdges"/>
<path d="M508.577 278.482V264.022H513.311C515.059 264.022 516.572 264.318 517.851 264.909C519.13 265.5 520.12 266.336 520.82 267.415C521.521 268.495 521.871 269.774 521.871 271.252C521.871 272.724 521.521 274.003 520.82 275.089C520.12 276.169 519.13 277.004 517.851 277.595C516.572 278.187 515.059 278.482 513.311 278.482H508.577ZM511.547 275.889H513.417C514.574 275.889 515.554 275.709 516.357 275.349C517.167 274.983 517.78 274.456 518.198 273.768C518.622 273.074 518.834 272.235 518.834 271.252C518.834 270.262 518.622 269.424 518.198 268.736C517.78 268.048 517.167 267.525 516.357 267.165C515.554 266.798 514.574 266.615 513.417 266.615H511.547V275.889ZM525.129 266.538C524.763 266.538 524.455 266.41 524.204 266.153C523.953 265.895 523.828 265.584 523.828 265.217C523.828 264.851 523.953 264.543 524.204 264.292C524.455 264.035 524.763 263.906 525.129 263.906C525.502 263.906 525.814 264.035 526.065 264.292C526.322 264.543 526.45 264.851 526.45 265.217C526.45 265.584 526.322 265.895 526.065 266.153C525.814 266.41 525.502 266.538 525.129 266.538ZM526.518 278.482H523.751V268.842H526.518V278.482ZM538.828 278.482H536.399L536.254 277.171C535.843 277.634 535.348 278 534.769 278.27C534.198 278.54 533.571 278.675 532.89 278.675C532.009 278.675 531.222 278.46 530.528 278.029C529.84 277.592 529.297 276.994 528.899 276.236C528.5 275.478 528.301 274.62 528.301 273.662C528.301 272.698 528.5 271.84 528.899 271.088C529.297 270.33 529.84 269.735 530.528 269.305C531.222 268.868 532.009 268.649 532.89 268.649C533.519 268.649 534.104 268.765 534.644 268.996C535.19 269.221 535.663 269.536 536.061 269.941V264.022H538.828V278.482ZM533.603 276.197C534.059 276.197 534.471 276.095 534.837 275.889C535.21 275.683 535.505 275.404 535.724 275.05C535.949 274.69 536.061 274.282 536.061 273.826V273.479C536.061 273.023 535.949 272.618 535.724 272.264C535.505 271.911 535.21 271.635 534.837 271.435C534.471 271.23 534.059 271.127 533.603 271.127C533.134 271.127 532.713 271.236 532.34 271.455C531.967 271.673 531.672 271.975 531.453 272.361C531.241 272.74 531.135 273.174 531.135 273.662C531.135 274.144 531.241 274.578 531.453 274.964C531.672 275.343 531.967 275.645 532.34 275.87C532.713 276.088 533.134 276.197 533.603 276.197ZM550.676 283.302H547.726L549.731 278.473L544.863 268.842H547.986L551.042 275.32L553.722 268.842H556.662L550.676 283.302ZM562.398 278.675C561.408 278.675 560.521 278.46 559.737 278.029C558.953 277.592 558.336 276.998 557.886 276.246C557.443 275.487 557.221 274.626 557.221 273.662C557.221 272.705 557.443 271.85 557.886 271.098C558.336 270.34 558.953 269.742 559.737 269.305C560.521 268.868 561.408 268.649 562.398 268.649C563.388 268.649 564.268 268.868 565.039 269.305C565.817 269.742 566.427 270.34 566.871 271.098C567.321 271.85 567.546 272.705 567.546 273.662C567.546 274.626 567.321 275.487 566.871 276.246C566.427 276.998 565.817 277.592 565.039 278.029C564.268 278.46 563.388 278.675 562.398 278.675ZM562.388 276.197C562.832 276.197 563.227 276.088 563.574 275.87C563.927 275.645 564.204 275.343 564.403 274.964C564.609 274.578 564.712 274.138 564.712 273.643C564.712 273.167 564.609 272.74 564.403 272.361C564.204 271.982 563.927 271.683 563.574 271.464C563.227 271.239 562.832 271.127 562.388 271.127C561.938 271.127 561.537 271.239 561.183 271.464C560.836 271.683 560.56 271.982 560.354 272.361C560.155 272.74 560.055 273.167 560.055 273.643C560.055 274.138 560.155 274.578 560.354 274.964C560.56 275.343 560.836 275.645 561.183 275.87C561.537 276.088 561.938 276.197 562.388 276.197ZM578.738 278.482H576.492L576.395 276.94C576.055 277.505 575.602 277.936 575.036 278.232C574.477 278.527 573.821 278.675 573.069 278.675C571.836 278.675 570.868 278.296 570.168 277.537C569.467 276.779 569.117 275.738 569.117 274.414V268.842H571.884V273.778C571.884 274.53 572.06 275.121 572.414 275.552C572.774 275.976 573.262 276.188 573.879 276.188C574.522 276.188 575.03 275.966 575.402 275.523C575.782 275.073 575.971 274.465 575.971 273.701V268.842H578.738V278.482ZM594.162 278.482H591.752L591.607 277.335C591.254 277.759 590.817 278.09 590.296 278.328C589.776 278.559 589.204 278.675 588.58 278.675C587.905 278.675 587.305 278.546 586.778 278.289C586.251 278.026 585.836 277.666 585.534 277.21C585.232 276.747 585.081 276.223 585.081 275.638C585.081 275.021 585.245 274.478 585.573 274.009C585.9 273.54 586.35 273.174 586.922 272.91C587.501 272.64 588.156 272.505 588.889 272.505C589.319 272.505 589.75 272.554 590.181 272.65C590.618 272.746 591.022 272.881 591.395 273.055V272.804C591.395 272.419 591.286 272.088 591.067 271.811C590.855 271.528 590.56 271.31 590.181 271.156C589.808 271.001 589.39 270.924 588.927 270.924C588.484 270.924 588.044 270.995 587.607 271.136C587.176 271.278 586.778 271.49 586.411 271.773L585.659 269.662C586.308 269.327 586.964 269.077 587.626 268.91C588.294 268.736 588.94 268.649 589.564 268.649C590.502 268.649 591.315 268.836 592.003 269.208C592.69 269.575 593.22 270.095 593.593 270.77C593.972 271.439 594.162 272.232 594.162 273.151V278.482ZM589.188 276.545C589.554 276.545 589.904 276.464 590.238 276.304C590.573 276.143 590.842 275.924 591.048 275.648C591.26 275.372 591.373 275.066 591.386 274.732V274.665C591.103 274.472 590.788 274.324 590.441 274.221C590.1 274.112 589.753 274.057 589.4 274.057C588.873 274.057 588.442 274.173 588.108 274.404C587.774 274.636 587.607 274.935 587.607 275.301C587.607 275.539 587.674 275.754 587.809 275.947C587.95 276.133 588.14 276.281 588.378 276.39C588.616 276.493 588.886 276.545 589.188 276.545ZM599.098 283.302H596.321V268.842H598.751L598.895 270.153C599.306 269.684 599.798 269.318 600.37 269.054C600.948 268.784 601.578 268.649 602.26 268.649C603.146 268.649 603.934 268.868 604.621 269.305C605.309 269.735 605.852 270.33 606.251 271.088C606.649 271.84 606.848 272.698 606.848 273.662C606.848 274.62 606.649 275.478 606.251 276.236C605.852 276.994 605.309 277.592 604.621 278.029C603.934 278.46 603.146 278.675 602.26 278.675C601.63 278.675 601.045 278.563 600.505 278.338C599.972 278.106 599.502 277.788 599.098 277.383V283.302ZM601.556 276.188C602.038 276.188 602.462 276.082 602.828 275.87C603.195 275.651 603.481 275.352 603.686 274.973C603.898 274.588 604.004 274.151 604.004 273.662C604.004 273.167 603.898 272.73 603.686 272.351C603.481 271.972 603.195 271.673 602.828 271.455C602.462 271.236 602.041 271.127 601.565 271.127C601.116 271.127 600.711 271.226 600.351 271.426C599.991 271.618 599.698 271.888 599.474 272.235C599.255 272.582 599.13 272.981 599.098 273.431V273.913C599.13 274.35 599.255 274.742 599.474 275.089C599.692 275.429 599.981 275.699 600.341 275.899C600.701 276.091 601.106 276.188 601.556 276.188ZM611.379 283.302H608.603V268.842H611.032L611.177 270.153C611.588 269.684 612.08 269.318 612.652 269.054C613.23 268.784 613.86 268.649 614.541 268.649C615.428 268.649 616.215 268.868 616.903 269.305C617.59 269.735 618.133 270.33 618.532 271.088C618.93 271.84 619.13 272.698 619.13 273.662C619.13 274.62 618.93 275.478 618.532 276.236C618.133 276.994 617.59 277.592 616.903 278.029C616.215 278.46 615.428 278.675 614.541 278.675C613.911 278.675 613.326 278.563 612.786 278.338C612.253 278.106 611.784 277.788 611.379 277.383V283.302ZM613.837 276.188C614.319 276.188 614.743 276.082 615.11 275.87C615.476 275.651 615.762 275.352 615.968 274.973C616.18 274.588 616.286 274.151 616.286 273.662C616.286 273.167 616.18 272.73 615.968 272.351C615.762 271.972 615.476 271.673 615.11 271.455C614.743 271.236 614.322 271.127 613.847 271.127C613.397 271.127 612.992 271.226 612.632 271.426C612.272 271.618 611.98 271.888 611.755 272.235C611.536 272.582 611.411 272.981 611.379 273.431V273.913C611.411 274.35 611.536 274.742 611.755 275.089C611.973 275.429 612.263 275.699 612.623 275.899C612.982 276.091 613.387 276.188 613.837 276.188ZM623.844 278.482H620.884V263.636H623.844V278.482ZM630.939 283.302H627.989L629.994 278.473L625.126 268.842H628.249L631.305 275.32L633.985 268.842H636.925L630.939 283.302ZM638.121 267.3L637.022 265.063C638.23 264.176 639.544 263.733 640.964 263.733C641.774 263.733 642.475 263.874 643.066 264.157C643.664 264.44 644.123 264.841 644.444 265.362C644.772 265.883 644.936 266.506 644.936 267.232C644.936 267.689 644.869 268.09 644.734 268.437C644.599 268.778 644.409 269.096 644.165 269.392C643.927 269.681 643.657 269.976 643.355 270.278C643.047 270.593 642.741 270.934 642.439 271.3C642.137 271.667 641.887 272.107 641.687 272.621C641.495 273.129 641.398 273.759 641.398 274.51H639.027C639.027 273.572 639.126 272.798 639.326 272.187C639.531 271.57 639.782 271.059 640.077 270.654C640.373 270.25 640.659 269.893 640.935 269.584C641.212 269.282 641.446 268.99 641.639 268.707C641.838 268.418 641.938 268.081 641.938 267.695C641.938 267.232 641.79 266.863 641.495 266.586C641.205 266.31 640.81 266.172 640.309 266.172C639.898 266.172 639.499 266.271 639.113 266.471C638.728 266.67 638.397 266.946 638.121 267.3ZM640.222 278.675C639.83 278.675 639.512 278.556 639.268 278.318C639.03 278.074 638.911 277.756 638.911 277.364C638.911 276.972 639.03 276.657 639.268 276.419C639.512 276.175 639.83 276.053 640.222 276.053C640.608 276.053 640.919 276.175 641.157 276.419C641.401 276.657 641.523 276.972 641.523 277.364C641.523 277.756 641.401 278.074 641.157 278.318C640.919 278.556 640.608 278.675 640.222 278.675Z" fill="#404040"/>
<path d="M520.492 321.225H513.84V310.38H515.113V320.097H520.492V321.225ZM528.845 320.336C527.948 321.025 526.96 321.37 525.88 321.37C525.128 321.37 524.454 321.201 523.856 320.864C523.258 320.526 522.786 320.068 522.439 319.49C522.097 318.907 521.925 318.249 521.925 317.516C521.925 316.812 522.085 316.186 522.403 315.636C522.721 315.082 523.157 314.646 523.711 314.328C524.266 314.009 524.895 313.85 525.598 313.85C526.321 313.85 526.958 314.024 527.507 314.371C528.061 314.718 528.493 315.2 528.801 315.817C529.11 316.434 529.264 317.147 529.264 317.957V318.188H523.212C523.299 318.613 523.473 318.981 523.733 319.295C523.998 319.608 524.326 319.851 524.716 320.025C525.107 320.198 525.543 320.285 526.025 320.285C526.854 320.285 527.611 320.013 528.295 319.468L528.845 320.336ZM523.169 317.176H528.143C528.09 316.728 527.951 316.338 527.724 316.005C527.502 315.668 527.213 315.405 526.856 315.217C526.505 315.029 526.107 314.935 525.663 314.935C525.215 314.935 524.81 315.029 524.449 315.217C524.092 315.405 523.8 315.668 523.574 316.005C523.352 316.338 523.217 316.728 523.169 317.176ZM535.404 321.052C534.927 321.264 534.462 321.37 534.009 321.37C533.575 321.37 533.194 321.276 532.866 321.088C532.539 320.895 532.283 320.627 532.1 320.285C531.917 319.938 531.825 319.536 531.825 319.078V315.058H530.56V313.995H531.883V312.187H533.011V313.995H535.173V315.058H533.011V318.861C533.011 319.295 533.127 319.644 533.358 319.909C533.594 320.174 533.903 320.307 534.284 320.307C534.592 320.307 534.901 320.215 535.209 320.032L535.404 321.052ZM548.22 321.225H547.179L547.135 320.054C546.87 320.478 546.521 320.803 546.087 321.03C545.658 321.256 545.149 321.37 544.561 321.37C543.602 321.37 542.843 321.08 542.284 320.502C541.73 319.919 541.452 319.124 541.452 318.116V313.995H542.638V318.029C542.638 318.714 542.831 319.261 543.217 319.671C543.607 320.08 544.125 320.285 544.771 320.285C545.446 320.285 545.99 320.063 546.405 319.62C546.824 319.177 547.034 318.598 547.034 317.885V313.995H548.22V321.225ZM550.448 320.596L550.759 319.483C550.933 319.646 551.131 319.789 551.352 319.909C551.574 320.03 551.808 320.124 552.054 320.191C552.299 320.254 552.548 320.285 552.798 320.285C553.247 320.285 553.608 320.186 553.883 319.989C554.158 319.791 554.295 319.533 554.295 319.215C554.295 318.984 554.223 318.793 554.078 318.644C553.938 318.49 553.753 318.357 553.521 318.246C553.29 318.135 553.042 318.029 552.777 317.928C552.454 317.803 552.133 317.661 551.815 317.502C551.497 317.343 551.232 317.133 551.02 316.873C550.812 316.612 550.709 316.27 550.709 315.846C550.709 315.441 550.81 315.089 551.012 314.79C551.215 314.491 551.497 314.26 551.858 314.096C552.225 313.932 552.644 313.85 553.116 313.85C553.83 313.85 554.531 314.029 555.22 314.385L554.866 315.455C554.712 315.354 554.533 315.265 554.331 315.188C554.129 315.106 553.921 315.043 553.709 315C553.497 314.957 553.297 314.935 553.109 314.935C552.757 314.935 552.473 315.017 552.256 315.181C552.039 315.34 551.931 315.554 551.931 315.824C551.931 315.978 551.974 316.121 552.061 316.251C552.152 316.376 552.304 316.501 552.516 316.627C552.728 316.752 553.022 316.892 553.398 317.046C553.731 317.181 554.059 317.335 554.382 317.509C554.705 317.677 554.972 317.897 555.184 318.167C555.401 318.432 555.51 318.779 555.51 319.208C555.51 319.632 555.396 320.008 555.17 320.336C554.948 320.659 554.637 320.912 554.237 321.095C553.842 321.278 553.384 321.37 552.863 321.37C552.001 321.37 551.196 321.112 550.448 320.596ZM563.033 321.225H561.847V310.38H563.033V318.015L563.597 317.328L566.742 313.995H568.231L565.281 317.133L568.687 321.225H567.147L564.457 318L563.033 319.519V321.225ZM577.393 321.225H576.208V317.191C576.208 316.506 576.012 315.959 575.622 315.549C575.232 315.14 574.713 314.935 574.068 314.935C573.398 314.935 572.853 315.157 572.434 315.6C572.019 316.039 571.812 316.617 571.812 317.335V321.225H570.626V313.995H571.66L571.703 315.166C571.968 314.742 572.318 314.417 572.752 314.19C573.186 313.964 573.696 313.85 574.284 313.85C575.244 313.85 576 314.14 576.555 314.718C577.114 315.296 577.393 316.089 577.393 317.097V321.225ZM583.194 321.37C582.476 321.37 581.83 321.206 581.256 320.878C580.683 320.55 580.23 320.104 579.897 319.54C579.569 318.972 579.405 318.328 579.405 317.61C579.405 316.897 579.569 316.258 579.897 315.694C580.23 315.125 580.683 314.677 581.256 314.349C581.83 314.017 582.476 313.85 583.194 313.85C583.912 313.85 584.555 314.017 585.124 314.349C585.693 314.677 586.141 315.125 586.469 315.694C586.797 316.258 586.961 316.897 586.961 317.61C586.961 318.328 586.797 318.972 586.469 319.54C586.141 320.104 585.693 320.55 585.124 320.878C584.555 321.206 583.912 321.37 583.194 321.37ZM583.187 320.3C583.673 320.3 584.11 320.182 584.495 319.945C584.881 319.709 585.185 319.389 585.406 318.984C585.633 318.579 585.746 318.119 585.746 317.603C585.746 317.097 585.633 316.641 585.406 316.236C585.185 315.831 584.881 315.511 584.495 315.275C584.11 315.039 583.673 314.92 583.187 314.92C582.7 314.92 582.261 315.039 581.871 315.275C581.485 315.511 581.179 315.831 580.953 316.236C580.731 316.641 580.62 317.097 580.62 317.603C580.62 318.119 580.731 318.579 580.953 318.984C581.179 319.389 581.485 319.709 581.871 319.945C582.261 320.182 582.7 320.3 583.187 320.3ZM596.723 321.225H595.349L593.715 315.701L592.081 321.225H590.708L588.401 313.995H589.659L591.387 319.779L593.159 313.995H594.272L596.044 319.779L597.779 313.995H599.037L596.723 321.225ZM600.774 322.96H599.899L600.477 319.924H601.562L600.774 322.96ZM615.787 321.225H614.414L612.78 315.701L611.146 321.225H609.772L607.466 313.995H608.724L610.452 319.779L612.223 313.995H613.336L615.108 319.779L616.843 313.995H618.101L615.787 321.225ZM626.244 320.336C625.347 321.025 624.359 321.37 623.28 321.37C622.528 321.37 621.853 321.201 621.255 320.864C620.658 320.526 620.185 320.068 619.838 319.49C619.496 318.907 619.325 318.249 619.325 317.516C619.325 316.812 619.484 316.186 619.802 315.636C620.12 315.082 620.556 314.646 621.111 314.328C621.665 314.009 622.294 313.85 622.998 313.85C623.721 313.85 624.357 314.024 624.906 314.371C625.461 314.718 625.892 315.2 626.201 315.817C626.509 316.434 626.663 317.147 626.663 317.957V318.188H620.612C620.698 318.613 620.872 318.981 621.132 319.295C621.397 319.608 621.725 319.851 622.116 320.025C622.506 320.198 622.942 320.285 623.424 320.285C624.253 320.285 625.01 320.013 625.694 319.468L626.244 320.336ZM620.568 317.176H625.543C625.49 316.728 625.35 316.338 625.123 316.005C624.902 315.668 624.612 315.405 624.256 315.217C623.904 315.029 623.506 314.935 623.063 314.935C622.614 314.935 622.21 315.029 621.848 315.217C621.491 315.405 621.2 315.668 620.973 316.005C620.751 316.338 620.617 316.728 620.568 317.176ZM629.528 313.489H628.827L629.557 310.235H630.432L629.528 313.489ZM634.425 321.225H633.167V310.091H634.425V321.225ZM638.418 321.225H637.16V310.091H638.418V321.225ZM521.558 346.225H520.517L520.473 345.054C520.208 345.478 519.859 345.803 519.425 346.03C518.996 346.256 518.487 346.37 517.899 346.37C516.94 346.37 516.181 346.08 515.622 345.502C515.068 344.919 514.79 344.124 514.79 343.116V338.995H515.976V343.029C515.976 343.714 516.169 344.261 516.555 344.671C516.945 345.08 517.463 345.285 518.109 345.285C518.784 345.285 519.328 345.063 519.743 344.62C520.162 344.177 520.372 343.598 520.372 342.885V338.995H521.558V346.225ZM525.478 349.84H524.293V338.995H525.348L525.406 340.051C525.743 339.679 526.151 339.388 526.628 339.176C527.105 338.959 527.628 338.85 528.197 338.85C528.905 338.85 529.539 339.014 530.098 339.342C530.662 339.67 531.106 340.118 531.429 340.687C531.756 341.251 531.92 341.892 531.92 342.61C531.92 343.323 531.756 343.964 531.429 344.533C531.106 345.102 530.662 345.55 530.098 345.878C529.539 346.206 528.905 346.37 528.197 346.37C527.652 346.37 527.146 346.271 526.679 346.073C526.216 345.876 525.816 345.601 525.478 345.249V349.84ZM528.103 345.285C528.609 345.285 529.057 345.172 529.448 344.945C529.838 344.714 530.142 344.396 530.359 343.991C530.58 343.586 530.691 343.123 530.691 342.603C530.691 342.077 530.58 341.615 530.359 341.215C530.137 340.81 529.831 340.492 529.44 340.26C529.055 340.029 528.611 339.913 528.11 339.913C527.633 339.913 527.202 340.019 526.816 340.231C526.435 340.443 526.127 340.735 525.89 341.106C525.654 341.472 525.517 341.892 525.478 342.364V342.856C525.517 343.328 525.652 343.748 525.883 344.114C526.115 344.48 526.421 344.767 526.801 344.974C527.187 345.182 527.621 345.285 528.103 345.285ZM541.141 346.225H540.085L540.02 345.169C539.687 345.541 539.282 345.835 538.805 346.052C538.328 346.264 537.807 346.37 537.244 346.37C536.53 346.37 535.892 346.206 535.328 345.878C534.764 345.55 534.318 345.102 533.99 344.533C533.667 343.964 533.506 343.323 533.506 342.61C533.506 341.892 533.667 341.251 533.99 340.687C534.318 340.118 534.764 339.67 535.328 339.342C535.892 339.014 536.53 338.85 537.244 338.85C537.788 338.85 538.292 338.949 538.755 339.147C539.222 339.344 539.622 339.619 539.955 339.971V335.38H541.141V346.225ZM537.345 345.3C537.827 345.3 538.265 345.189 538.661 344.967C539.056 344.74 539.369 344.434 539.601 344.049C539.837 343.658 539.955 343.217 539.955 342.726V342.48C539.955 341.988 539.837 341.55 539.601 341.164C539.369 340.774 539.056 340.468 538.661 340.246C538.265 340.024 537.827 339.913 537.345 339.913C536.843 339.913 536.395 340.031 536 340.267C535.605 340.504 535.291 340.824 535.06 341.229C534.834 341.634 534.72 342.092 534.72 342.603C534.72 343.114 534.834 343.574 535.06 343.984C535.291 344.389 535.605 344.709 536 344.945C536.395 345.182 536.843 345.3 537.345 345.3ZM549.71 346.225H548.691L548.611 345.271C548.346 345.613 548.009 345.883 547.599 346.08C547.189 346.273 546.731 346.37 546.225 346.37C545.705 346.37 545.239 346.268 544.83 346.066C544.42 345.859 544.097 345.577 543.861 345.22C543.63 344.863 543.514 344.458 543.514 344.005C543.514 343.528 543.639 343.109 543.89 342.747C544.145 342.381 544.49 342.094 544.924 341.887C545.362 341.68 545.859 341.576 546.413 341.576C546.775 341.576 547.143 341.622 547.519 341.713C547.895 341.8 548.23 341.921 548.524 342.075V341.771C548.524 341.386 548.428 341.058 548.235 340.788C548.042 340.513 547.784 340.304 547.462 340.159C547.139 340.01 546.782 339.935 546.391 339.935C546.054 339.935 545.709 339.998 545.358 340.123C545.006 340.243 544.668 340.431 544.345 340.687L543.955 339.667C544.374 339.397 544.815 339.195 545.278 339.06C545.741 338.92 546.199 338.85 546.652 338.85C547.278 338.85 547.818 338.978 548.271 339.234C548.729 339.484 549.083 339.843 549.334 340.311C549.585 340.774 549.71 341.323 549.71 341.959V346.225ZM546.435 345.285C546.806 345.285 547.146 345.208 547.454 345.054C547.763 344.9 548.013 344.678 548.206 344.389C548.399 344.095 548.505 343.748 548.524 343.347V343.225C548.259 343.017 547.96 342.858 547.628 342.747C547.3 342.632 546.965 342.574 546.623 342.574C546.088 342.574 545.64 342.704 545.278 342.964C544.921 343.225 544.743 343.555 544.743 343.955C544.743 344.205 544.815 344.432 544.96 344.634C545.109 344.837 545.312 344.996 545.567 345.112C545.823 345.227 546.112 345.285 546.435 345.285ZM556.284 346.052C555.807 346.264 555.342 346.37 554.889 346.37C554.455 346.37 554.074 346.276 553.746 346.088C553.419 345.895 553.163 345.627 552.98 345.285C552.797 344.938 552.705 344.536 552.705 344.078V340.058H551.44V338.995H552.763V337.187H553.891V338.995H556.053V340.058H553.891V343.861C553.891 344.295 554.007 344.644 554.238 344.909C554.474 345.174 554.783 345.307 555.163 345.307C555.472 345.307 555.78 345.215 556.089 345.032L556.284 346.052ZM564.709 345.336C563.813 346.025 562.824 346.37 561.745 346.37C560.993 346.37 560.318 346.201 559.72 345.864C559.123 345.526 558.65 345.068 558.303 344.49C557.961 343.907 557.79 343.249 557.79 342.516C557.79 341.812 557.949 341.186 558.267 340.636C558.585 340.082 559.021 339.646 559.576 339.328C560.13 339.009 560.759 338.85 561.463 338.85C562.186 338.85 562.822 339.024 563.371 339.371C563.926 339.718 564.357 340.2 564.666 340.817C564.974 341.434 565.128 342.147 565.128 342.957V343.188H559.077C559.164 343.613 559.337 343.981 559.597 344.295C559.862 344.608 560.19 344.851 560.581 345.025C560.971 345.198 561.407 345.285 561.889 345.285C562.718 345.285 563.475 345.013 564.16 344.468L564.709 345.336ZM559.033 342.176H564.008C563.955 341.728 563.815 341.338 563.588 341.005C563.367 340.668 563.077 340.405 562.721 340.217C562.369 340.029 561.971 339.935 561.528 339.935C561.08 339.935 560.675 340.029 560.313 340.217C559.956 340.405 559.665 340.668 559.438 341.005C559.217 341.338 559.082 341.728 559.033 342.176ZM573.909 349.84H572.615L574.134 346.167L570.678 338.995H571.986L574.705 344.801L577.105 338.995H578.392L573.909 349.84ZM583.404 346.37C582.686 346.37 582.04 346.206 581.467 345.878C580.893 345.55 580.44 345.104 580.108 344.54C579.78 343.972 579.616 343.328 579.616 342.61C579.616 341.897 579.78 341.258 580.108 340.694C580.44 340.125 580.893 339.677 581.467 339.349C582.04 339.017 582.686 338.85 583.404 338.85C584.123 338.85 584.766 339.017 585.335 339.349C585.904 339.677 586.352 340.125 586.68 340.694C587.007 341.258 587.171 341.897 587.171 342.61C587.171 343.328 587.007 343.972 586.68 344.54C586.352 345.104 585.904 345.55 585.335 345.878C584.766 346.206 584.123 346.37 583.404 346.37ZM583.397 345.3C583.884 345.3 584.32 345.182 584.706 344.945C585.091 344.709 585.395 344.389 585.617 343.984C585.843 343.579 585.957 343.119 585.957 342.603C585.957 342.097 585.843 341.641 585.617 341.236C585.395 340.831 585.091 340.511 584.706 340.275C584.32 340.039 583.884 339.92 583.397 339.92C582.91 339.92 582.472 340.039 582.081 340.275C581.696 340.511 581.39 340.831 581.163 341.236C580.941 341.641 580.831 342.097 580.831 342.603C580.831 343.119 580.941 343.579 581.163 343.984C581.39 344.389 581.696 344.709 582.081 344.945C582.472 345.182 582.91 345.3 583.397 345.3ZM595.958 346.225H594.917L594.873 345.054C594.608 345.478 594.259 345.803 593.825 346.03C593.396 346.256 592.887 346.37 592.299 346.37C591.34 346.37 590.581 346.08 590.022 345.502C589.468 344.919 589.19 344.124 589.19 343.116V338.995H590.376V343.029C590.376 343.714 590.569 344.261 590.955 344.671C591.345 345.08 591.863 345.285 592.509 345.285C593.184 345.285 593.728 345.063 594.143 344.62C594.562 344.177 594.772 343.598 594.772 342.885V338.995H595.958V346.225ZM599.878 346.225H598.693V338.995H599.734L599.784 340.427C600.035 339.93 600.387 339.544 600.84 339.27C601.298 338.99 601.823 338.85 602.416 338.85C602.546 338.85 602.679 338.858 602.814 338.872C602.949 338.887 603.084 338.908 603.219 338.937L603.074 340.007C602.809 339.945 602.546 339.913 602.286 339.913C601.814 339.913 601.394 340.029 601.028 340.26C600.666 340.492 600.384 340.81 600.182 341.215C599.98 341.619 599.878 342.085 599.878 342.61V346.225ZM609.592 346.225H608.255L612.708 335.38H614.089L618.536 346.225H617.198L616.02 343.297H610.771L609.592 346.225ZM611.219 342.169H615.571L613.395 336.754L611.219 342.169ZM621.661 349.84H620.475V338.995H621.531L621.589 340.051C621.926 339.679 622.333 339.388 622.811 339.176C623.288 338.959 623.811 338.85 624.38 338.85C625.088 338.85 625.722 339.014 626.281 339.342C626.845 339.67 627.288 340.118 627.611 340.687C627.939 341.251 628.103 341.892 628.103 342.61C628.103 343.323 627.939 343.964 627.611 344.533C627.288 345.102 626.845 345.55 626.281 345.878C625.722 346.206 625.088 346.37 624.38 346.37C623.835 346.37 623.329 346.271 622.861 346.073C622.399 345.876 621.998 345.601 621.661 345.249V349.84ZM624.286 345.285C624.792 345.285 625.24 345.172 625.63 344.945C626.021 344.714 626.324 344.396 626.541 343.991C626.763 343.586 626.874 343.123 626.874 342.603C626.874 342.077 626.763 341.615 626.541 341.215C626.32 340.81 626.014 340.492 625.623 340.26C625.237 340.029 624.794 339.913 624.293 339.913C623.816 339.913 623.384 340.019 622.999 340.231C622.618 340.443 622.309 340.735 622.073 341.106C621.837 341.472 621.7 341.892 621.661 342.364V342.856C621.7 343.328 621.835 343.748 622.066 344.114C622.297 344.48 622.603 344.767 622.984 344.974C623.37 345.182 623.804 345.285 624.286 345.285ZM631.452 349.84H630.267V338.995H631.322L631.38 340.051C631.718 339.679 632.125 339.388 632.602 339.176C633.079 338.959 633.602 338.85 634.171 338.85C634.879 338.85 635.513 339.014 636.072 339.342C636.636 339.67 637.08 340.118 637.403 340.687C637.731 341.251 637.894 341.892 637.894 342.61C637.894 343.323 637.731 343.964 637.403 344.533C637.08 345.102 636.636 345.55 636.072 345.878C635.513 346.206 634.879 346.37 634.171 346.37C633.626 346.37 633.12 346.271 632.653 346.073C632.19 345.876 631.79 345.601 631.452 345.249V349.84ZM634.077 345.285C634.583 345.285 635.031 345.172 635.422 344.945C635.812 344.714 636.116 344.396 636.333 343.991C636.554 343.586 636.665 343.123 636.665 342.603C636.665 342.077 636.554 341.615 636.333 341.215C636.111 340.81 635.805 340.492 635.415 340.26C635.029 340.029 634.585 339.913 634.084 339.913C633.607 339.913 633.176 340.019 632.79 340.231C632.409 340.443 632.101 340.735 631.865 341.106C631.628 341.472 631.491 341.892 631.452 342.364V342.856C631.491 343.328 631.626 343.748 631.857 344.114C632.089 344.48 632.395 344.767 632.776 344.974C633.161 345.182 633.595 345.285 634.077 345.285ZM552.3 371.225H551.028V361.508H547.543V360.38H555.785V361.508H552.3V371.225ZM558.838 371.225H557.653V363.995H558.694L558.744 365.427C558.995 364.93 559.347 364.544 559.8 364.27C560.258 363.99 560.783 363.85 561.376 363.85C561.506 363.85 561.639 363.858 561.774 363.872C561.909 363.887 562.044 363.908 562.179 363.937L562.034 365.007C561.769 364.945 561.506 364.913 561.246 364.913C560.773 364.913 560.354 365.029 559.988 365.26C559.626 365.492 559.344 365.81 559.142 366.215C558.939 366.619 558.838 367.085 558.838 367.61V371.225ZM569.519 371.225H568.5L568.42 370.271C568.155 370.613 567.817 370.883 567.408 371.08C566.998 371.273 566.54 371.37 566.034 371.37C565.513 371.37 565.048 371.268 564.639 371.066C564.229 370.859 563.906 370.577 563.67 370.22C563.438 369.863 563.323 369.458 563.323 369.005C563.323 368.528 563.448 368.109 563.699 367.747C563.954 367.381 564.299 367.094 564.733 366.887C565.171 366.68 565.668 366.576 566.222 366.576C566.584 366.576 566.952 366.622 567.328 366.713C567.704 366.8 568.039 366.921 568.333 367.075V366.771C568.333 366.386 568.237 366.058 568.044 365.788C567.851 365.513 567.593 365.304 567.27 365.159C566.947 365.01 566.591 364.935 566.2 364.935C565.863 364.935 565.518 364.998 565.166 365.123C564.815 365.243 564.477 365.431 564.154 365.687L563.764 364.667C564.183 364.397 564.624 364.195 565.087 364.06C565.55 363.92 566.008 363.85 566.461 363.85C567.087 363.85 567.627 363.978 568.08 364.234C568.538 364.484 568.892 364.843 569.143 365.311C569.394 365.774 569.519 366.323 569.519 366.959V371.225ZM566.244 370.285C566.615 370.285 566.955 370.208 567.263 370.054C567.572 369.9 567.822 369.678 568.015 369.389C568.208 369.095 568.314 368.748 568.333 368.347V368.225C568.068 368.017 567.769 367.858 567.437 367.747C567.109 367.632 566.774 367.574 566.432 367.574C565.897 367.574 565.448 367.704 565.087 367.964C564.73 368.225 564.552 368.555 564.552 368.955C564.552 369.205 564.624 369.432 564.769 369.634C564.918 369.837 565.121 369.996 565.376 370.112C565.632 370.227 565.921 370.285 566.244 370.285ZM578.125 370.184C577.773 370.565 577.356 370.859 576.874 371.066C576.392 371.268 575.874 371.37 575.319 371.37C574.601 371.37 573.955 371.206 573.382 370.878C572.813 370.55 572.362 370.102 572.03 369.533C571.702 368.964 571.538 368.323 571.538 367.61C571.538 366.892 571.702 366.251 572.03 365.687C572.362 365.118 572.813 364.67 573.382 364.342C573.955 364.014 574.601 363.85 575.319 363.85C575.869 363.85 576.385 363.952 576.867 364.154C577.349 364.356 577.766 364.648 578.117 365.029L577.409 365.774C577.153 365.504 576.847 365.296 576.491 365.152C576.139 365.007 575.765 364.935 575.37 364.935C574.864 364.935 574.413 365.051 574.018 365.282C573.628 365.508 573.319 365.822 573.093 366.222C572.871 366.622 572.76 367.082 572.76 367.603C572.76 368.123 572.871 368.586 573.093 368.991C573.319 369.396 573.628 369.714 574.018 369.945C574.413 370.172 574.864 370.285 575.37 370.285C575.765 370.285 576.141 370.213 576.498 370.068C576.855 369.919 577.158 369.712 577.409 369.446L578.125 370.184ZM581.474 371.225H580.288V360.38H581.474V368.015L582.038 367.328L585.183 363.995H586.672L583.723 367.133L587.128 371.225H585.588L582.898 368L581.474 369.519V371.225ZM595.264 370.336C594.367 371.025 593.379 371.37 592.299 371.37C591.547 371.37 590.873 371.201 590.275 370.864C589.677 370.526 589.205 370.068 588.858 369.49C588.516 368.907 588.345 368.249 588.345 367.516C588.345 366.812 588.504 366.186 588.822 365.636C589.14 365.082 589.576 364.646 590.13 364.328C590.685 364.009 591.314 363.85 592.017 363.85C592.74 363.85 593.377 364.024 593.926 364.371C594.48 364.718 594.912 365.2 595.22 365.817C595.529 366.434 595.683 367.147 595.683 367.957V368.188H589.631C589.718 368.613 589.892 368.981 590.152 369.295C590.417 369.608 590.745 369.851 591.135 370.025C591.526 370.198 591.962 370.285 592.444 370.285C593.273 370.285 594.03 370.013 594.714 369.468L595.264 370.336ZM589.588 367.176H594.562C594.509 366.728 594.37 366.338 594.143 366.005C593.921 365.668 593.632 365.405 593.275 365.217C592.924 365.029 592.526 364.935 592.082 364.935C591.634 364.935 591.229 365.029 590.868 365.217C590.511 365.405 590.22 365.668 589.993 366.005C589.771 366.338 589.636 366.728 589.588 367.176ZM599.032 371.225H597.847V363.995H598.888L598.938 365.427C599.189 364.93 599.541 364.544 599.994 364.27C600.452 363.99 600.977 363.85 601.57 363.85C601.7 363.85 601.833 363.858 601.968 363.872C602.103 363.887 602.238 363.908 602.373 363.937L602.228 365.007C601.963 364.945 601.7 364.913 601.44 364.913C600.968 364.913 600.548 365.029 600.182 365.26C599.821 365.492 599.539 365.81 599.336 366.215C599.134 366.619 599.032 367.085 599.032 367.61V371.225ZM603.777 371.37C603.565 371.37 603.392 371.305 603.257 371.174C603.127 371.039 603.062 370.866 603.062 370.654C603.062 370.437 603.127 370.261 603.257 370.126C603.392 369.991 603.565 369.924 603.777 369.924C603.989 369.924 604.163 369.991 604.298 370.126C604.438 370.261 604.508 370.437 604.508 370.654C604.508 370.866 604.438 371.039 604.298 371.174C604.163 371.305 603.989 371.37 603.777 371.37Z" fill="#404040"/>
<path d="M505.942 416.968H502.973V410.789L497.497 402.508H501.103L504.438 408.176L507.812 402.508H511.418L505.942 410.798V416.968ZM519.891 415.888C518.696 416.737 517.388 417.161 515.968 417.161C514.914 417.161 513.966 416.936 513.124 416.486C512.288 416.03 511.626 415.413 511.138 414.635C510.656 413.857 510.415 412.98 510.415 412.003C510.415 411.071 510.633 410.239 511.07 409.506C511.514 408.774 512.115 408.195 512.873 407.771C513.632 407.347 514.493 407.135 515.457 407.135C516.453 407.135 517.33 407.37 518.088 407.839C518.847 408.301 519.438 408.951 519.862 409.786C520.286 410.615 520.498 411.576 520.498 412.668V412.977H513.394C513.509 413.356 513.699 413.69 513.962 413.979C514.226 414.262 514.554 414.487 514.946 414.654C515.338 414.821 515.788 414.905 516.295 414.905C517.279 414.905 518.194 414.587 519.043 413.951L519.891 415.888ZM513.268 411.569H517.944C517.892 411.152 517.761 410.785 517.549 410.47C517.343 410.149 517.07 409.898 516.729 409.719C516.395 409.539 516.019 409.449 515.601 409.449C515.177 409.449 514.798 409.542 514.464 409.728C514.136 409.915 513.869 410.165 513.664 410.48C513.458 410.795 513.326 411.158 513.268 411.569ZM521.578 416.139L522.185 413.787C522.378 413.999 522.635 414.195 522.957 414.375C523.284 414.555 523.635 414.699 524.007 414.808C524.387 414.911 524.743 414.963 525.077 414.963C525.476 414.963 525.788 414.889 526.013 414.741C526.237 414.587 526.35 414.381 526.35 414.124C526.35 413.912 526.273 413.735 526.119 413.594C525.971 413.446 525.768 413.317 525.511 413.208C525.261 413.093 524.981 412.98 524.673 412.871C524.255 412.71 523.824 412.524 523.381 412.312C522.944 412.1 522.574 411.81 522.272 411.444C521.97 411.078 521.819 410.593 521.819 409.988C521.819 409.41 521.97 408.909 522.272 408.485C522.574 408.054 523.002 407.723 523.554 407.492C524.107 407.254 524.75 407.135 525.482 407.135C526.671 407.135 527.857 407.434 529.04 408.032L528.259 410.22C528.053 410.059 527.796 409.911 527.487 409.776C527.179 409.635 526.861 409.523 526.533 409.439C526.212 409.355 525.923 409.314 525.666 409.314C525.351 409.314 525.103 409.378 524.923 409.506C524.75 409.635 524.663 409.812 524.663 410.037C524.663 410.204 524.724 410.355 524.846 410.49C524.968 410.618 525.148 410.744 525.386 410.866C525.63 410.981 525.929 411.107 526.282 411.242C526.719 411.402 527.16 411.595 527.603 411.82C528.053 412.039 528.429 412.334 528.731 412.707C529.04 413.073 529.194 413.562 529.194 414.172C529.194 414.77 529.03 415.294 528.702 415.744C528.381 416.193 527.925 416.544 527.333 416.794C526.748 417.039 526.061 417.161 525.27 417.161C523.953 417.161 522.722 416.82 521.578 416.139Z" fill="#404040"/>
<path d="M643.053 416.968H639.64L632.883 407.096V416.968H629.913V402.508H633.326L640.084 412.398V402.508H643.053V416.968ZM649.994 417.161C649.004 417.161 648.117 416.945 647.333 416.515C646.549 416.078 645.932 415.483 645.482 414.731C645.039 413.973 644.817 413.112 644.817 412.148C644.817 411.19 645.039 410.336 645.482 409.584C645.932 408.825 646.549 408.228 647.333 407.791C648.117 407.354 649.004 407.135 649.994 407.135C650.983 407.135 651.864 407.354 652.635 407.791C653.413 408.228 654.023 408.825 654.467 409.584C654.917 410.336 655.141 411.19 655.141 412.148C655.141 413.112 654.917 413.973 654.467 414.731C654.023 415.483 653.413 416.078 652.635 416.515C651.864 416.945 650.983 417.161 649.994 417.161ZM649.984 414.683C650.427 414.683 650.823 414.574 651.17 414.355C651.523 414.13 651.8 413.828 651.999 413.449C652.204 413.064 652.307 412.623 652.307 412.129C652.307 411.653 652.204 411.226 651.999 410.846C651.8 410.467 651.523 410.168 651.17 409.95C650.823 409.725 650.427 409.613 649.984 409.613C649.534 409.613 649.132 409.725 648.779 409.95C648.432 410.168 648.156 410.467 647.95 410.846C647.751 411.226 647.651 411.653 647.651 412.129C647.651 412.623 647.751 413.064 647.95 413.449C648.156 413.828 648.432 414.13 648.779 414.355C649.132 414.574 649.534 414.683 649.984 414.683Z" fill="#404040"/>
</g>
<defs>
<filter id="filter0_d_2008_2803" x="351.323" y="0.0213356" width="362.355" height="362.355" filterUnits="userSpaceOnUse" color-interpolation-filters="sRGB">
<feFlood flood-opacity="0" result="BackgroundImageFix"/>
<feColorMatrix in="SourceAlpha" type="matrix" values="0 0 0 0 0 0 0 0 0 0 0 0 0 0 0 0 0 0 127 0" result="hardAlpha"/>
<feOffset dy="30.8387"/>
<feGaussianBlur stdDeviation="30.8387"/>
<feComposite in2="hardAlpha" operator="out"/>
<feColorMatrix type="matrix" values="0 0 0 0 0 0 0 0 0 0 0 0 0 0 0 0 0 0 0.1 0"/>
<feBlend mode="normal" in2="BackgroundImageFix" result="effect1_dropShadow_2008_2803"/>
<feBlend mode="normal" in="SourceGraphic" in2="effect1_dropShadow_2008_2803" result="shape"/>
</filter>
<filter id="filter1_d_2008_2803" x="-280.243" y="96.4402" width="809" height="554" filterUnits="userSpaceOnUse" color-interpolation-filters="sRGB">
<feFlood flood-opacity="0" result="BackgroundImageFix"/>
<feColorMatrix in="SourceAlpha" type="matrix" values="0 0 0 0 0 0 0 0 0 0 0 0 0 0 0 0 0 0 127 0" result="hardAlpha"/>
<feOffset dy="40"/>
<feGaussianBlur stdDeviation="40"/>
<feComposite in2="hardAlpha" operator="out"/>
<feColorMatrix type="matrix" values="0 0 0 0 0 0 0 0 0 0 0 0 0 0 0 0 0 0 0.1 0"/>
<feBlend mode="normal" in2="BackgroundImageFix" result="effect1_dropShadow_2008_2803"/>
<feBlend mode="normal" in="SourceGraphic" in2="effect1_dropShadow_2008_2803" result="shape"/>
</filter>
<filter id="filter2_d_2008_2803" x="246.111" y="325.016" width="447.362" height="369.768" filterUnits="userSpaceOnUse" color-interpolation-filters="sRGB">
<feFlood flood-opacity="0" result="BackgroundImageFix"/>
<feColorMatrix in="SourceAlpha" type="matrix" values="0 0 0 0 0 0 0 0 0 0 0 0 0 0 0 0 0 0 127 0" result="hardAlpha"/>
<feOffset dy="40"/>
<feGaussianBlur stdDeviation="40"/>
<feComposite in2="hardAlpha" operator="out"/>
<feColorMatrix type="matrix" values="0 0 0 0 0 0 0 0 0 0 0 0 0 0 0 0 0 0 0.1 0"/>
<feBlend mode="normal" in2="BackgroundImageFix" result="effect1_dropShadow_2008_2803"/>
<feBlend mode="normal" in="SourceGraphic" in2="effect1_dropShadow_2008_2803" result="shape"/>
</filter>
<filter id="filter3_d_2008_2803" x="324.038" y="185.447" width="504.676" height="409.664" filterUnits="userSpaceOnUse" color-interpolation-filters="sRGB">
<feFlood flood-opacity="0" result="BackgroundImageFix"/>
<feColorMatrix in="SourceAlpha" type="matrix" values="0 0 0 0 0 0 0 0 0 0 0 0 0 0 0 0 0 0 127 0" result="hardAlpha"/>
<feOffset dy="49.3571"/>
<feGaussianBlur stdDeviation="49.3571"/>
<feComposite in2="hardAlpha" operator="out"/>
<feColorMatrix type="matrix" values="0 0 0 0 0 0 0 0 0 0 0 0 0 0 0 0 0 0 0.1 0"/>
<feBlend mode="normal" in2="BackgroundImageFix" result="effect1_dropShadow_2008_2803"/>
<feBlend mode="normal" in="SourceGraphic" in2="effect1_dropShadow_2008_2803" result="shape"/>
</filter>
<linearGradient id="paint0_linear_2008_2803" x1="332.319" y1="180.476" x2="141.996" y2="587.876" gradientUnits="userSpaceOnUse">
<stop stop-color="#85BDE5"/>
<stop offset="0.885417" stop-color="#212775"/>
<stop offset="1" stop-color="#141466"/>
</linearGradient>
</defs>
</svg>
